<svg version="1.0" xmlns="http://www.w3.org/2000/svg" width="50" height="50" viewBox="0 0 1000.000000 1000.000000" preserveAspectRatio="xMidYMid meet">

<g transform="translate(0.000000,1000.000000) scale(0.100000,-0.100000)" fill="#000000" stroke="none">
<path d="M3280 7861 l0 -78 193 -6 c282 -9 375 -35 444 -125 45 -59 70 -149
85 -304 19 -192 19 -4023 0 -4313 -30 -472 -67 -625 -198 -822 -110 -165 -284
-311 -446 -373 -143 -55 -197 -64 -383 -64 -157 0 -176 2 -251 27 -100 33
-160 75 -185 130 -26 58 -24 75 18 180 33 82 36 102 37 187 1 122 -22 177
-105 254 -73 68 -134 91 -244 91 -66 0 -90 -5 -137 -27 -71 -33 -138 -101
-175 -176 -26 -53 -28 -66 -28 -178 0 -119 0 -121 38 -197 89 -180 289 -326
540 -396 156 -44 260 -55 512 -55 180 0 267 4 349 17 574 91 971 367 1196 832
79 162 113 305 141 585 8 80 14 745 19 2190 5 1454 11 2102 19 2165 29 229 91
314 257 351 41 9 149 17 267 21 l197 6 0 78 0 79 -1080 0 -1080 0 0 -79z"></path>
<path d="M6336 7149 c-441 -51 -806 -302 -991 -683 -66 -135 -100 -264 -115
-426 -43 -497 193 -979 615 -1254 169 -111 465 -263 765 -395 502 -221 665
-303 866 -436 333 -222 478 -483 461 -835 -11 -228 -97 -423 -263 -600 -209
-221 -463 -320 -828 -320 -308 0 -570 80 -785 240 -105 78 -246 229 -325 347
-135 204 -260 514 -336 836 l-33 137 -89 0 -88 0 0 -800 0 -800 89 0 89 0 17
73 c31 137 101 319 153 395 6 9 38 -17 113 -91 270 -267 577 -429 934 -493
123 -22 405 -30 546 -15 209 22 434 83 590 161 178 90 402 285 508 443 184
274 265 611 231 966 -41 438 -251 794 -605 1023 -119 77 -510 274 -870 438
-608 277 -838 413 -1036 610 -93 92 -112 117 -152 200 -58 117 -77 187 -84
310 -13 221 77 446 245 608 176 170 508 240 843 176 376 -71 710 -348 916
-758 52 -103 153 -379 153 -418 0 -16 11 -18 85 -18 l85 0 -2 648 -3 647 -79
0 -80 0 -12 -65 c-22 -114 -85 -253 -147 -325 l-32 -36 -103 100 c-183 175
-338 276 -522 335 -232 75 -493 102 -724 75z"></path>
</g>
</svg>